{"title":"Mission Impossible Rogue Nation (2015) 720p x264 AAC ITA SUB ITA","uid":12876072,"size":4671047158,"categoryP":"video","categoryS":"movies","magnet":"?xt=urn:btih:8be5a8d683e9b9e8040e00009551e4c01c1d4116&amp;dn=Mission+Impossible+Rogue+Nation+%282015%29+720p+x264+AAC+ITA+SUB+ITA&amp;tr=udp%3A%2F%2Ftracker.leechers-paradise.org%3A6969&amp;tr=udp%3A%2F%2Fzer0day.ch%3A1337&amp;tr=udp%3A%2F%2Fopen.demonii.com%3A1337&amp;tr=udp%3A%2F%2Ftracker.coppersurfer.tk%3A6969&amp;tr=udp%3A%2F%2Fexodus.desync.com%3A6969","seeders":1,"leechers":2,"uploader":"xtron197777","files":1,"time":1448954831,"description":"Mission: Impossible - Rogue Nation\r\n \nhttp://i.imgur.com/C6gB9iJ.jpg?1\r\n\r\n-: Cast :-\r\n\r\nTom Cruise: Ethan Hunt\r\nJeremy Renner: William Brandt\r\nSimon Pegg: Benji Dunn\r\nRebecca Ferguson: Ilsa Faust\r\nVing Rhames: Luther Stickell\r\nAlec Baldwin: Alan Hunley\r\nSean Harris: Solomon Lane\r\nSimon McBurney: Attlee\r\nZhang Jingchu: Lauren\r\nAmerica Olivo: Turandot\r\nJens Hultén: Janik &quot;Dottore delle Ossa&quot; Vinter\r\nTom Hollander: Primo Ministro\r\n\r\n-: Trama :-\r\n\r\nDopo aver intercettato una vendita di gas nervino a dei terroristi, l'agente dell'Impossible Mission Force (IMF) Ethan Hunt si pone come obiettivo di provare l'esistenza del Sindacato, un'attività criminale internazionale fino ad allora ignota alla Central Intelligence Agency (CIA). Ethan Hunt viene catturato dal Sindacato, ma riesce a fuggire da una camera di tortura, allestita da Janik Vinter soprannominato &quot;il dottore delle ossa&quot;, grazie all'aiuto dell'agente dell'MI6 Ilsa Faust, da tempo infiltrata nel Sindacato.\r\n\r\nIntanto il direttore della CIA Alan Hunley e l'agente dell'IMF William Brandt testimoniano davanti ad un comitato del Senato. L'IMF, al momento senza un segretario in carica, è criticata per i suoi metodi distruttivi e spesso impropri...\r\n\r\n-: Info :-\r\nGeneral \r\nComplete name : Z:torrentMission Impossible Rogue Nation (2015) 720p x264 AAC ITA SUB ITA ENGMission Impossible Rogue Nation (2015) 720p x264 AAC ITA SUB ITA ENG.mp4 \r\nFormat : MPEG-4 \r\nFormat profile : Base Media \r\nCodec ID : isom \r\nFile size : 4.35 GiB \r\nDuration : 2h 11mn \r\nOverall bit rate mode : Variable \r\nOverall bit rate : 4 734 Kbps \r\nEncoded date : UTC 2015-12-01 05:22:29 \r\nTagged date : UTC 2015-12-01 05:22:29 \r\nWriting application : Lavf57.14.100 \r\n\r\nVideo \r\nID : 1 \r\nFormat : AVC \r\nFormat/Info : Advanced Video Codec \r\nFormat profile :    \r\nFormat settings, CABAC : Yes \r\nFormat settings, ReFrames : 4 frames \r\nCodec ID : avc1 \r\nCodec ID/Info : Advanced Video Coding \r\nDuration : 2h 11mn \r\nBit rate : 4 602 Kbps \r\nWidth : 1 280 pixels \r\nHeight : 536 pixels \r\nDisplay aspect ratio : 2.40:1 \r\nFrame rate mode : Variable \r\nFrame rate : 23.976 fps \r\nMinimum frame rate : 23.564 fps \r\nMaximum frame rate : 24.390 fps \r\nColor space : YUV \r\nChroma subsampling : 4:2:0 \r\nBit depth : 8 bits \r\nScan type : Progressive \r\nBits/(Pixel*Frame) : 0.280 \r\nStream size : 4.23 GiB (97%) \r\nWriting library : x264 core 146 r2538 121396c \r\nEncoding settings : cabac=1 / ref=2 / deblock=1:-2:-1 / analyse=0x3:0x113 / me=hex / subme=6 / psy=1 / psy_rd=1.00:0.00 / mixed_ref=1 / me_range=16 / chroma_me=1 / trellis=1 / 8x8dct=1 / cqm=0 / deadzone=21,11 / fast_pskip=1 / chroma_qp_offset=-2 / threads=12 / lookahead_threads=2 / sliced_threads=0 / nr=0 / decimate=0 / interlaced=0 / bluray_compat=0 / constrained_intra=0 / bframes=3 / b_pyramid=2 / b_adapt=1 / b_bias=0 / direct=1 / weightb=1 / open_gop=0 / weightp=1 / keyint=240 / keyint_min=24 / scenecut=40 / intra_refresh=0 / rc_lookahead=30 / rc=2pass / mbtree=1 / bitrate=4602 / ratetol=1.0 / qcomp=0.60 / qpmin=0 / qpmax=69 / qpstep=4 / cplxblur=20.0 / qblur=0.5 / vbv_maxrate=50000 / vbv_bufsize=50000 / nal_hrd=none / filler=0 / ip_ratio=1.40 / aq=1:1.00 \r\nEncoded date : UTC 2015-12-01 05:22:29 \r\nTagged date : UTC 2015-12-01 05:22:29 \r\n\r\nAudio \r\nID : 2 \r\nFormat : AAC \r\nFormat/Info : Advanced Audio Codec \r\nFormat profile : LC \r\nCodec ID : 40 \r\nDuration : 2h 11mn \r\nDuration_LastFrame : -11ms \r\nBit rate mode : Constant \r\nBit rate : 128 Kbps \r\nChannel(s) : 2 channels \r\nChannel positions : Front: L R \r\nSampling rate : 48.0 KHz \r\nCompression mode : Lossy \r\nStream size : 120 MiB (3%) \r\nLanguage : Italian \r\nEncoded date : UTC 2015-12-01 05:22:29 \r\nTagged date : UTC 2015-12-01 05:22:29 \r\n\r\nText #1 \r\nID : 3 \r\nFormat : Timed Text \r\nMuxing mode : sbtl \r\nCodec ID : tx3g \r\nDuration : 1h 58mn \r\nBit rate mode : Variable \r\nBit rate : 1 bps \r\nStream size : 1.16 KiB (0%) \r\nLanguage : Italian \r\nEncoded date : UTC 2015-12-01 05:22:29 \r\nTagged date : UTC 2015-12-01 05:22:29 \r\n\r\nText #2 \r\nID : 4 \r\nFormat : Timed Text \r\nMuxing mode : sbtl \r\nCodec ID : tx3g \r\nDuration : 2h 11mn \r\nBit rate mode : Variable \r\nBit rate : 50 bps \r\nStream size : 48.4 KiB (0%) \r\nLanguage : Italian \r\nEncoded date : UTC 2015-12-01 05:22:29 \r\nTagged date : UTC 2015-12-01 05:22:29 \r\n\r\nText #3 \r\nID : 5 \r\nFormat : Timed Text \r\nMuxing mode : sbtl \r\nCodec ID : tx3g \r\nDuration : 1h 58mn \r\nBit rate mode : Variable \r\nBit rate : 1 bps \r\nStream size : 740 Bytes (0%) \r\nLanguage : English \r\nEncoded date : UTC 2015-12-01 05:22:29 \r\nTagged date : UTC 2015-12-01 05:22:29 \r\n\r\nText #4 \r\nID : 6 \r\nFormat : Timed Text \r\nMuxing mode : sbtl \r\nCodec ID : tx3g \r\nDuration : 2h 4mn \r\nBit rate mode : Variable \r\nBit rate : 56 bps \r\nStream size : 51.4 KiB (0%) \r\nLanguage : English \r\nEncoded date : UTC 2015-12-01 05:22:29 \r\nTagged date : UTC 2015-12-01 05:22:29","torrent":{"xt":"urn:btih:8be5a8d683e9b9e8040e00009551e4c01c1d4116","amp;dn":"Mission+Impossible+Rogue+Nation+%282015%29+720p+x264+AAC+ITA+SUB+ITA","amp;tr":["udp%3A%2F%2Ftracker.leechers-paradise.org%3A6969","udp%3A%2F%2Fzer0day.ch%3A1337","udp%3A%2F%2Fopen.demonii.com%3A1337","udp%3A%2F%2Ftracker.coppersurfer.tk%3A6969","udp%3A%2F%2Fexodus.desync.com%3A6969"],"infoHash":"8be5a8d683e9b9e8040e00009551e4c01c1d4116","infoHashBuffer":{"type":"Buffer","data":[139,229,168,214,131,233,185,232,4,14,0,0,149,81,228,192,28,29,65,22]},"announce":[],"urlList":[]}}